<mxfile host="app.diagrams.net" modified="2023-11-21T17:34:45.097Z" agent="Mozilla/5.0 (Windows NT 10.0; Win64; x64) AppleWebKit/537.36 (KHTML, like Gecko) Chrome/119.0.0.0 Safari/537.36" etag="7m_qWbW-ibdiAYSCaogM" version="22.1.3" type="device" pages="2">
  <diagram name="High level components" id="cOoBFTMBQQrQHURf7YNJ">
    <mxGraphModel dx="1062" dy="641" grid="1" gridSize="10" guides="1" tooltips="1" connect="1" arrows="1" fold="1" page="1" pageScale="1" pageWidth="1654" pageHeight="1169" math="0" shadow="0">
      <root>
        <mxCell id="0" />
        <mxCell id="1" parent="0" />
        <mxCell id="whrq9c6-1YdyCOkFaGTL-42" value="" style="rounded=0;whiteSpace=wrap;html=1;fillColor=none;fontColor=#333333;strokeColor=#666666;dashed=1;dashPattern=1 4;" parent="1" vertex="1">
          <mxGeometry x="970" y="360" width="420" height="380" as="geometry" />
        </mxCell>
        <mxCell id="whrq9c6-1YdyCOkFaGTL-41" value="" style="rounded=0;whiteSpace=wrap;html=1;fillColor=none;fontColor=#333333;strokeColor=#666666;dashed=1;dashPattern=1 4;" parent="1" vertex="1">
          <mxGeometry x="570" y="360" width="400" height="380" as="geometry" />
        </mxCell>
        <mxCell id="whrq9c6-1YdyCOkFaGTL-40" value="" style="rounded=0;whiteSpace=wrap;html=1;fillColor=none;fontColor=#333333;strokeColor=#666666;dashed=1;dashPattern=1 4;" parent="1" vertex="1">
          <mxGeometry x="300" y="360" width="270" height="380" as="geometry" />
        </mxCell>
        <mxCell id="whrq9c6-1YdyCOkFaGTL-17" style="edgeStyle=orthogonalEdgeStyle;rounded=0;orthogonalLoop=1;jettySize=auto;html=1;entryX=0;entryY=0;entryDx=60;entryDy=80;entryPerimeter=0;endArrow=none;endFill=0;" parent="1" source="whrq9c6-1YdyCOkFaGTL-1" target="whrq9c6-1YdyCOkFaGTL-15" edge="1">
          <mxGeometry relative="1" as="geometry" />
        </mxCell>
        <mxCell id="whrq9c6-1YdyCOkFaGTL-52" style="rounded=0;orthogonalLoop=1;jettySize=auto;html=1;dashed=1;endArrow=none;endFill=0;exitX=0;exitY=0;exitDx=0;exitDy=20;exitPerimeter=0;" parent="1" source="whrq9c6-1YdyCOkFaGTL-1" target="SX0DmwltoXCPjksRXZ_--1" edge="1">
          <mxGeometry relative="1" as="geometry">
            <mxPoint x="797.2" y="310" as="targetPoint" />
          </mxGeometry>
        </mxCell>
        <mxCell id="whrq9c6-1YdyCOkFaGTL-53" style="rounded=0;orthogonalLoop=1;jettySize=auto;html=1;endArrow=none;endFill=0;exitX=0;exitY=0;exitDx=0;exitDy=20;exitPerimeter=0;dashed=1;" parent="1" source="whrq9c6-1YdyCOkFaGTL-1" target="SX0DmwltoXCPjksRXZ_--4" edge="1">
          <mxGeometry relative="1" as="geometry">
            <mxPoint x="894" y="310" as="targetPoint" />
          </mxGeometry>
        </mxCell>
        <mxCell id="whrq9c6-1YdyCOkFaGTL-1" value="" style="verticalAlign=top;align=left;spacingTop=8;spacingLeft=2;spacingRight=12;shape=cube;size=20;direction=south;fontStyle=4;html=1;whiteSpace=wrap;fillColor=#dae8fc;strokeColor=#6c8ebf;" parent="1" vertex="1">
          <mxGeometry x="810" y="420" width="60" height="100" as="geometry" />
        </mxCell>
        <mxCell id="whrq9c6-1YdyCOkFaGTL-2" value="Web server" style="text;html=1;align=center;verticalAlign=middle;resizable=0;points=[];autosize=1;strokeColor=none;fillColor=none;" parent="1" vertex="1">
          <mxGeometry x="790" y="520" width="80" height="30" as="geometry" />
        </mxCell>
        <mxCell id="whrq9c6-1YdyCOkFaGTL-6" value="" style="edgeStyle=orthogonalEdgeStyle;rounded=0;orthogonalLoop=1;jettySize=auto;html=1;endArrow=none;endFill=0;" parent="1" source="whrq9c6-1YdyCOkFaGTL-5" target="whrq9c6-1YdyCOkFaGTL-1" edge="1">
          <mxGeometry relative="1" as="geometry" />
        </mxCell>
        <mxCell id="whrq9c6-1YdyCOkFaGTL-5" value="Load&lt;br&gt;balancer" style="html=1;shadow=0;dashed=0;align=center;verticalAlign=middle;shape=mxgraph.arrows2.arrow;dy=0;dx=30;notch=30;fillColor=#dae8fc;strokeColor=#6c8ebf;" parent="1" vertex="1">
          <mxGeometry x="650" y="440" width="130" height="60" as="geometry" />
        </mxCell>
        <mxCell id="whrq9c6-1YdyCOkFaGTL-9" style="edgeStyle=orthogonalEdgeStyle;rounded=0;orthogonalLoop=1;jettySize=auto;html=1;entryX=0;entryY=0.5;entryDx=30;entryDy=0;entryPerimeter=0;endArrow=none;endFill=0;exitX=0.542;exitY=0.07;exitDx=0;exitDy=0;exitPerimeter=0;" parent="1" source="whrq9c6-1YdyCOkFaGTL-7" target="whrq9c6-1YdyCOkFaGTL-5" edge="1">
          <mxGeometry relative="1" as="geometry" />
        </mxCell>
        <mxCell id="whrq9c6-1YdyCOkFaGTL-14" style="edgeStyle=orthogonalEdgeStyle;rounded=0;orthogonalLoop=1;jettySize=auto;html=1;endArrow=none;endFill=0;" parent="1" target="whrq9c6-1YdyCOkFaGTL-11" edge="1">
          <mxGeometry relative="1" as="geometry">
            <mxPoint x="520" y="469.66" as="sourcePoint" />
            <mxPoint x="290" y="450" as="targetPoint" />
            <Array as="points">
              <mxPoint x="330" y="470" />
              <mxPoint x="330" y="470" />
            </Array>
          </mxGeometry>
        </mxCell>
        <mxCell id="whrq9c6-1YdyCOkFaGTL-7" value="" style="verticalAlign=top;align=left;spacingTop=8;spacingLeft=2;spacingRight=12;shape=cube;size=60;direction=south;fontStyle=4;html=1;whiteSpace=wrap;fillStyle=auto;fillColor=#f8cecc;strokeColor=#b85450;" parent="1" vertex="1">
          <mxGeometry x="520" y="410" width="80" height="110" as="geometry" />
        </mxCell>
        <mxCell id="whrq9c6-1YdyCOkFaGTL-8" value="Firewall" style="text;html=1;align=center;verticalAlign=middle;resizable=0;points=[];autosize=1;strokeColor=none;fillColor=none;" parent="1" vertex="1">
          <mxGeometry x="510" y="520" width="60" height="30" as="geometry" />
        </mxCell>
        <mxCell id="whrq9c6-1YdyCOkFaGTL-34" style="edgeStyle=orthogonalEdgeStyle;rounded=0;orthogonalLoop=1;jettySize=auto;html=1;exitX=0.007;exitY=0.583;exitDx=0;exitDy=0;exitPerimeter=0;endArrow=none;endFill=0;" parent="1" source="whrq9c6-1YdyCOkFaGTL-11" target="whrq9c6-1YdyCOkFaGTL-33" edge="1">
          <mxGeometry relative="1" as="geometry" />
        </mxCell>
        <mxCell id="whrq9c6-1YdyCOkFaGTL-11" value="" style="whiteSpace=wrap;html=1;fillColor=#fff2cc;strokeColor=#d6b656;" parent="1" vertex="1">
          <mxGeometry x="340" y="440" width="90" height="50" as="geometry" />
        </mxCell>
        <mxCell id="whrq9c6-1YdyCOkFaGTL-12" value="" style="shape=trapezoid;perimeter=trapezoidPerimeter;whiteSpace=wrap;html=1;fixedSize=1;fillColor=#fff2cc;strokeColor=#d6b656;" parent="1" vertex="1">
          <mxGeometry x="320" y="490" width="130" height="20" as="geometry" />
        </mxCell>
        <mxCell id="whrq9c6-1YdyCOkFaGTL-13" value="Client" style="text;html=1;align=center;verticalAlign=middle;resizable=0;points=[];autosize=1;strokeColor=none;fillColor=none;" parent="1" vertex="1">
          <mxGeometry x="360" y="520" width="50" height="30" as="geometry" />
        </mxCell>
        <mxCell id="whrq9c6-1YdyCOkFaGTL-15" value="" style="verticalAlign=top;align=left;spacingTop=8;spacingLeft=2;spacingRight=12;shape=cube;size=60;direction=south;fontStyle=4;html=1;whiteSpace=wrap;fillStyle=auto;fillColor=#f8cecc;strokeColor=#b85450;" parent="1" vertex="1">
          <mxGeometry x="915" y="410" width="80" height="110" as="geometry" />
        </mxCell>
        <mxCell id="whrq9c6-1YdyCOkFaGTL-16" value="Firewall" style="text;html=1;align=center;verticalAlign=middle;resizable=0;points=[];autosize=1;strokeColor=none;fillColor=none;" parent="1" vertex="1">
          <mxGeometry x="900" y="520" width="60" height="30" as="geometry" />
        </mxCell>
        <mxCell id="whrq9c6-1YdyCOkFaGTL-22" style="edgeStyle=orthogonalEdgeStyle;rounded=0;orthogonalLoop=1;jettySize=auto;html=1;endArrow=none;endFill=0;" parent="1" source="whrq9c6-1YdyCOkFaGTL-18" target="whrq9c6-1YdyCOkFaGTL-20" edge="1">
          <mxGeometry relative="1" as="geometry" />
        </mxCell>
        <mxCell id="whrq9c6-1YdyCOkFaGTL-18" value="Load&lt;br&gt;balancer" style="html=1;shadow=0;dashed=0;align=center;verticalAlign=middle;shape=mxgraph.arrows2.arrow;dy=0;dx=30;notch=30;fillColor=#d5e8d4;strokeColor=#82b366;" parent="1" vertex="1">
          <mxGeometry x="1020" y="440" width="130" height="60" as="geometry" />
        </mxCell>
        <mxCell id="whrq9c6-1YdyCOkFaGTL-19" value="" style="endArrow=none;html=1;rounded=0;entryX=0;entryY=0.5;entryDx=30;entryDy=0;entryPerimeter=0;exitX=0.548;exitY=0.084;exitDx=0;exitDy=0;exitPerimeter=0;" parent="1" source="whrq9c6-1YdyCOkFaGTL-15" target="whrq9c6-1YdyCOkFaGTL-18" edge="1">
          <mxGeometry width="50" height="50" relative="1" as="geometry">
            <mxPoint x="1053" y="470" as="sourcePoint" />
            <mxPoint x="1233" y="480" as="targetPoint" />
          </mxGeometry>
        </mxCell>
        <mxCell id="whrq9c6-1YdyCOkFaGTL-20" value="" style="verticalAlign=top;align=left;spacingTop=8;spacingLeft=2;spacingRight=12;shape=cube;size=20;direction=south;fontStyle=4;html=1;whiteSpace=wrap;fillColor=#d5e8d4;strokeColor=#82b366;" parent="1" vertex="1">
          <mxGeometry x="1190" y="420" width="60" height="100" as="geometry" />
        </mxCell>
        <mxCell id="whrq9c6-1YdyCOkFaGTL-21" value="DBMS" style="text;html=1;align=center;verticalAlign=middle;resizable=0;points=[];autosize=1;strokeColor=none;fillColor=none;" parent="1" vertex="1">
          <mxGeometry x="1190" y="520" width="60" height="30" as="geometry" />
        </mxCell>
        <mxCell id="whrq9c6-1YdyCOkFaGTL-24" style="edgeStyle=orthogonalEdgeStyle;rounded=0;orthogonalLoop=1;jettySize=auto;html=1;endArrow=none;endFill=0;" parent="1" source="whrq9c6-1YdyCOkFaGTL-23" target="whrq9c6-1YdyCOkFaGTL-20" edge="1">
          <mxGeometry relative="1" as="geometry" />
        </mxCell>
        <mxCell id="whrq9c6-1YdyCOkFaGTL-23" value="" style="shape=cylinder3;whiteSpace=wrap;html=1;boundedLbl=1;backgroundOutline=1;size=15;fillColor=#d5e8d4;strokeColor=#82b366;" parent="1" vertex="1">
          <mxGeometry x="1280" y="440" width="80" height="60" as="geometry" />
        </mxCell>
        <mxCell id="whrq9c6-1YdyCOkFaGTL-26" value="Data" style="text;html=1;align=center;verticalAlign=middle;resizable=0;points=[];autosize=1;strokeColor=none;fillColor=none;" parent="1" vertex="1">
          <mxGeometry x="1290" y="520" width="50" height="30" as="geometry" />
        </mxCell>
        <mxCell id="whrq9c6-1YdyCOkFaGTL-38" style="edgeStyle=orthogonalEdgeStyle;rounded=0;orthogonalLoop=1;jettySize=auto;html=1;endArrow=none;endFill=0;" parent="1" source="whrq9c6-1YdyCOkFaGTL-29" target="whrq9c6-1YdyCOkFaGTL-35" edge="1">
          <mxGeometry relative="1" as="geometry">
            <Array as="points">
              <mxPoint x="300" y="630" />
              <mxPoint x="300" y="630" />
            </Array>
          </mxGeometry>
        </mxCell>
        <mxCell id="whrq9c6-1YdyCOkFaGTL-29" value="" style="whiteSpace=wrap;html=1;fillColor=#fff2cc;strokeColor=#d6b656;" parent="1" vertex="1">
          <mxGeometry x="340" y="600" width="90" height="50" as="geometry" />
        </mxCell>
        <mxCell id="whrq9c6-1YdyCOkFaGTL-30" value="" style="shape=trapezoid;perimeter=trapezoidPerimeter;whiteSpace=wrap;html=1;fixedSize=1;fillColor=#fff2cc;strokeColor=#d6b656;" parent="1" vertex="1">
          <mxGeometry x="320" y="650" width="130" height="20" as="geometry" />
        </mxCell>
        <mxCell id="whrq9c6-1YdyCOkFaGTL-31" value="Client" style="text;html=1;align=center;verticalAlign=middle;resizable=0;points=[];autosize=1;strokeColor=none;fillColor=none;" parent="1" vertex="1">
          <mxGeometry x="360" y="680" width="50" height="30" as="geometry" />
        </mxCell>
        <mxCell id="whrq9c6-1YdyCOkFaGTL-32" value="" style="endArrow=none;html=1;rounded=0;entryX=0;entryY=0;entryDx=60;entryDy=80;entryPerimeter=0;exitX=1;exitY=0.5;exitDx=0;exitDy=0;" parent="1" source="whrq9c6-1YdyCOkFaGTL-29" target="whrq9c6-1YdyCOkFaGTL-7" edge="1">
          <mxGeometry width="50" height="50" relative="1" as="geometry">
            <mxPoint x="230" y="620" as="sourcePoint" />
            <mxPoint x="280" y="570" as="targetPoint" />
          </mxGeometry>
        </mxCell>
        <mxCell id="whrq9c6-1YdyCOkFaGTL-33" value="EDU" style="shape=umlActor;verticalLabelPosition=bottom;verticalAlign=top;html=1;outlineConnect=0;" parent="1" vertex="1">
          <mxGeometry x="220" y="440" width="30" height="60" as="geometry" />
        </mxCell>
        <mxCell id="whrq9c6-1YdyCOkFaGTL-35" value="STU" style="shape=umlActor;verticalLabelPosition=bottom;verticalAlign=top;html=1;outlineConnect=0;" parent="1" vertex="1">
          <mxGeometry x="220" y="600" width="30" height="60" as="geometry" />
        </mxCell>
        <mxCell id="whrq9c6-1YdyCOkFaGTL-43" value="Presentation tier" style="text;html=1;align=center;verticalAlign=middle;resizable=0;points=[];autosize=1;strokeColor=none;fillColor=none;" parent="1" vertex="1">
          <mxGeometry x="330" y="745" width="110" height="30" as="geometry" />
        </mxCell>
        <mxCell id="whrq9c6-1YdyCOkFaGTL-44" value="Application tier" style="text;html=1;align=center;verticalAlign=middle;resizable=0;points=[];autosize=1;strokeColor=none;fillColor=none;" parent="1" vertex="1">
          <mxGeometry x="720" y="745" width="100" height="30" as="geometry" />
        </mxCell>
        <mxCell id="whrq9c6-1YdyCOkFaGTL-45" value="Data tier" style="text;html=1;align=center;verticalAlign=middle;resizable=0;points=[];autosize=1;strokeColor=none;fillColor=none;" parent="1" vertex="1">
          <mxGeometry x="1150" y="745" width="70" height="30" as="geometry" />
        </mxCell>
        <mxCell id="whrq9c6-1YdyCOkFaGTL-48" value="GitHub API" style="text;html=1;align=center;verticalAlign=middle;resizable=0;points=[];autosize=1;strokeColor=none;fillColor=none;" parent="1" vertex="1">
          <mxGeometry x="750" y="250" width="80" height="30" as="geometry" />
        </mxCell>
        <mxCell id="whrq9c6-1YdyCOkFaGTL-50" value="eMail API" style="text;html=1;align=center;verticalAlign=middle;resizable=0;points=[];autosize=1;strokeColor=none;fillColor=none;" parent="1" vertex="1">
          <mxGeometry x="865" y="250" width="70" height="30" as="geometry" />
        </mxCell>
        <mxCell id="SX0DmwltoXCPjksRXZ_--1" value="" style="shape=requiredInterface;html=1;verticalLabelPosition=bottom;sketch=0;rotation=90;" vertex="1" parent="1">
          <mxGeometry x="780" y="280" width="20" height="30" as="geometry" />
        </mxCell>
        <mxCell id="SX0DmwltoXCPjksRXZ_--4" value="" style="shape=requiredInterface;html=1;verticalLabelPosition=bottom;sketch=0;rotation=90;" vertex="1" parent="1">
          <mxGeometry x="890" y="280" width="20" height="30" as="geometry" />
        </mxCell>
      </root>
    </mxGraphModel>
  </diagram>
  <diagram id="GEOFSXBYY_uaa49tpmLa" name="Component diagram">
    <mxGraphModel dx="872" dy="526" grid="1" gridSize="10" guides="1" tooltips="1" connect="1" arrows="1" fold="1" page="1" pageScale="1" pageWidth="1654" pageHeight="1169" math="0" shadow="0">
      <root>
        <mxCell id="0" />
        <mxCell id="1" parent="0" />
        <mxCell id="XylG27JU7PK3eP8t6BsH-8" style="edgeStyle=elbowEdgeStyle;rounded=0;orthogonalLoop=1;jettySize=auto;html=1;endArrow=none;endFill=0;" parent="1" source="DIwakF3W96JZLYulPcr_-1" target="DIwakF3W96JZLYulPcr_-5" edge="1">
          <mxGeometry relative="1" as="geometry" />
        </mxCell>
        <mxCell id="XylG27JU7PK3eP8t6BsH-9" style="edgeStyle=elbowEdgeStyle;rounded=0;orthogonalLoop=1;jettySize=auto;html=1;endArrow=none;endFill=0;" parent="1" source="DIwakF3W96JZLYulPcr_-1" target="K3vsCA65qydEFag3leHv-1" edge="1">
          <mxGeometry relative="1" as="geometry" />
        </mxCell>
        <mxCell id="XylG27JU7PK3eP8t6BsH-10" style="edgeStyle=elbowEdgeStyle;rounded=0;orthogonalLoop=1;jettySize=auto;html=1;endArrow=none;endFill=0;" parent="1" source="DIwakF3W96JZLYulPcr_-1" target="XylG27JU7PK3eP8t6BsH-2" edge="1">
          <mxGeometry relative="1" as="geometry" />
        </mxCell>
        <mxCell id="XylG27JU7PK3eP8t6BsH-11" style="edgeStyle=elbowEdgeStyle;rounded=0;orthogonalLoop=1;jettySize=auto;html=1;endArrow=none;endFill=0;" parent="1" source="DIwakF3W96JZLYulPcr_-1" target="XylG27JU7PK3eP8t6BsH-1" edge="1">
          <mxGeometry relative="1" as="geometry" />
        </mxCell>
        <mxCell id="XylG27JU7PK3eP8t6BsH-15" style="edgeStyle=elbowEdgeStyle;rounded=0;orthogonalLoop=1;jettySize=auto;html=1;endArrow=none;endFill=0;" parent="1" source="DIwakF3W96JZLYulPcr_-1" target="K3vsCA65qydEFag3leHv-2" edge="1">
          <mxGeometry relative="1" as="geometry" />
        </mxCell>
        <mxCell id="DIwakF3W96JZLYulPcr_-1" value="&lt;b style=&quot;font-size: 14px;&quot;&gt;EDU&lt;br style=&quot;font-size: 14px;&quot;&gt;WebApp&lt;br style=&quot;font-size: 14px;&quot;&gt;&lt;/b&gt;" style="html=1;dropTarget=0;whiteSpace=wrap;fontSize=14;fillColor=#fff2cc;strokeColor=#d6b656;" parent="1" vertex="1">
          <mxGeometry x="710" y="485" width="180" height="90" as="geometry" />
        </mxCell>
        <mxCell id="DIwakF3W96JZLYulPcr_-2" value="" style="shape=module;jettyWidth=8;jettyHeight=4;fillColor=#fff2cc;strokeColor=#d6b656;" parent="DIwakF3W96JZLYulPcr_-1" vertex="1">
          <mxGeometry x="1" width="20" height="20" relative="1" as="geometry">
            <mxPoint x="-27" y="7" as="offset" />
          </mxGeometry>
        </mxCell>
        <mxCell id="XylG27JU7PK3eP8t6BsH-16" style="edgeStyle=elbowEdgeStyle;rounded=0;orthogonalLoop=1;jettySize=auto;html=1;endArrow=none;endFill=0;" parent="1" source="DIwakF3W96JZLYulPcr_-3" target="XylG27JU7PK3eP8t6BsH-3" edge="1">
          <mxGeometry relative="1" as="geometry" />
        </mxCell>
        <mxCell id="XylG27JU7PK3eP8t6BsH-17" style="edgeStyle=elbowEdgeStyle;rounded=0;orthogonalLoop=1;jettySize=auto;html=1;endArrow=none;endFill=0;" parent="1" source="DIwakF3W96JZLYulPcr_-3" target="XylG27JU7PK3eP8t6BsH-4" edge="1">
          <mxGeometry relative="1" as="geometry" />
        </mxCell>
        <mxCell id="XylG27JU7PK3eP8t6BsH-18" style="edgeStyle=elbowEdgeStyle;rounded=0;orthogonalLoop=1;jettySize=auto;html=1;endArrow=none;endFill=0;" parent="1" source="DIwakF3W96JZLYulPcr_-3" target="XylG27JU7PK3eP8t6BsH-7" edge="1">
          <mxGeometry relative="1" as="geometry" />
        </mxCell>
        <mxCell id="XylG27JU7PK3eP8t6BsH-19" style="edgeStyle=elbowEdgeStyle;rounded=0;orthogonalLoop=1;jettySize=auto;html=1;endArrow=none;endFill=0;" parent="1" source="DIwakF3W96JZLYulPcr_-3" target="XylG27JU7PK3eP8t6BsH-5" edge="1">
          <mxGeometry relative="1" as="geometry" />
        </mxCell>
        <mxCell id="DIwakF3W96JZLYulPcr_-3" value="&lt;b style=&quot;font-size: 14px;&quot;&gt;STU&lt;br style=&quot;font-size: 14px;&quot;&gt;WebApp&lt;br style=&quot;font-size: 14px;&quot;&gt;&lt;/b&gt;" style="html=1;dropTarget=0;whiteSpace=wrap;fontSize=14;fillColor=#fff2cc;strokeColor=#d6b656;" parent="1" vertex="1">
          <mxGeometry x="710" y="930" width="180" height="90" as="geometry" />
        </mxCell>
        <mxCell id="DIwakF3W96JZLYulPcr_-4" value="" style="shape=module;jettyWidth=8;jettyHeight=4;fillColor=#fff2cc;strokeColor=#d6b656;" parent="DIwakF3W96JZLYulPcr_-3" vertex="1">
          <mxGeometry x="1" width="20" height="20" relative="1" as="geometry">
            <mxPoint x="-27" y="7" as="offset" />
          </mxGeometry>
        </mxCell>
        <mxCell id="apOxuv2w6RahuDsQ91DI-37" style="edgeStyle=orthogonalEdgeStyle;rounded=0;orthogonalLoop=1;jettySize=auto;html=1;endArrow=none;endFill=0;" parent="1" source="DIwakF3W96JZLYulPcr_-5" target="758whW3wnUASTh_ceuO4-10" edge="1">
          <mxGeometry relative="1" as="geometry" />
        </mxCell>
        <mxCell id="DIwakF3W96JZLYulPcr_-5" value="Auth manager&lt;br&gt;interface" style="shape=providedRequiredInterface;html=1;verticalLabelPosition=bottom;sketch=0;flipV=0;flipH=1;" parent="1" vertex="1">
          <mxGeometry x="1030" y="310" width="40" height="40" as="geometry" />
        </mxCell>
        <mxCell id="apOxuv2w6RahuDsQ91DI-30" style="rounded=0;orthogonalLoop=1;jettySize=auto;html=1;endArrow=none;endFill=0;edgeStyle=elbowEdgeStyle;" parent="1" source="K3vsCA65qydEFag3leHv-1" target="758whW3wnUASTh_ceuO4-3" edge="1">
          <mxGeometry relative="1" as="geometry">
            <Array as="points">
              <mxPoint x="1200" y="800" />
            </Array>
          </mxGeometry>
        </mxCell>
        <mxCell id="K3vsCA65qydEFag3leHv-1" value="Tournaments action&lt;br&gt;interface" style="shape=providedRequiredInterface;html=1;verticalLabelPosition=bottom;sketch=0;flipV=0;flipH=1;" parent="1" vertex="1">
          <mxGeometry x="1030" y="610" width="40" height="40" as="geometry" />
        </mxCell>
        <mxCell id="apOxuv2w6RahuDsQ91DI-31" style="rounded=0;orthogonalLoop=1;jettySize=auto;html=1;endArrow=none;endFill=0;edgeStyle=elbowEdgeStyle;" parent="1" source="K3vsCA65qydEFag3leHv-2" target="758whW3wnUASTh_ceuO4-5" edge="1">
          <mxGeometry relative="1" as="geometry">
            <Array as="points">
              <mxPoint x="1160" y="650" />
            </Array>
          </mxGeometry>
        </mxCell>
        <mxCell id="K3vsCA65qydEFag3leHv-2" value="Battles action&lt;br&gt;interface" style="shape=providedRequiredInterface;html=1;verticalLabelPosition=bottom;sketch=0;flipV=0;flipH=1;" parent="1" vertex="1">
          <mxGeometry x="1030" y="510" width="40" height="40" as="geometry" />
        </mxCell>
        <mxCell id="apOxuv2w6RahuDsQ91DI-33" style="rounded=0;orthogonalLoop=1;jettySize=auto;html=1;endArrow=none;endFill=0;edgeStyle=elbowEdgeStyle;" parent="1" source="XylG27JU7PK3eP8t6BsH-1" target="758whW3wnUASTh_ceuO4-1" edge="1">
          <mxGeometry relative="1" as="geometry" />
        </mxCell>
        <mxCell id="XylG27JU7PK3eP8t6BsH-1" value="Badges action&lt;br&gt;interface" style="shape=providedRequiredInterface;html=1;verticalLabelPosition=bottom;sketch=0;flipV=0;flipH=1;" parent="1" vertex="1">
          <mxGeometry x="1030" y="710" width="40" height="40" as="geometry" />
        </mxCell>
        <mxCell id="apOxuv2w6RahuDsQ91DI-32" style="rounded=0;orthogonalLoop=1;jettySize=auto;html=1;endArrow=none;endFill=0;edgeStyle=elbowEdgeStyle;" parent="1" source="XylG27JU7PK3eP8t6BsH-2" target="758whW3wnUASTh_ceuO4-7" edge="1">
          <mxGeometry relative="1" as="geometry">
            <Array as="points">
              <mxPoint x="1120" y="460" />
            </Array>
          </mxGeometry>
        </mxCell>
        <mxCell id="XylG27JU7PK3eP8t6BsH-2" value="Profile inspector&lt;br&gt;interface" style="shape=providedRequiredInterface;html=1;verticalLabelPosition=bottom;sketch=0;flipV=0;flipH=1;" parent="1" vertex="1">
          <mxGeometry x="1030" y="410" width="40" height="40" as="geometry" />
        </mxCell>
        <mxCell id="apOxuv2w6RahuDsQ91DI-38" style="edgeStyle=orthogonalEdgeStyle;rounded=0;orthogonalLoop=1;jettySize=auto;html=1;endArrow=none;endFill=0;" parent="1" source="XylG27JU7PK3eP8t6BsH-3" target="758whW3wnUASTh_ceuO4-10" edge="1">
          <mxGeometry relative="1" as="geometry" />
        </mxCell>
        <mxCell id="XylG27JU7PK3eP8t6BsH-3" value="Auth manager&lt;br&gt;interface" style="shape=providedRequiredInterface;html=1;verticalLabelPosition=bottom;sketch=0;flipV=0;flipH=1;" parent="1" vertex="1">
          <mxGeometry x="1030" y="1100" width="40" height="40" as="geometry" />
        </mxCell>
        <mxCell id="apOxuv2w6RahuDsQ91DI-34" style="rounded=0;orthogonalLoop=1;jettySize=auto;html=1;endArrow=none;endFill=0;edgeStyle=elbowEdgeStyle;" parent="1" source="XylG27JU7PK3eP8t6BsH-4" target="758whW3wnUASTh_ceuO4-3" edge="1">
          <mxGeometry relative="1" as="geometry">
            <Array as="points">
              <mxPoint x="1200" y="960" />
            </Array>
          </mxGeometry>
        </mxCell>
        <mxCell id="XylG27JU7PK3eP8t6BsH-4" value="Tournaments action&lt;br&gt;interface" style="shape=providedRequiredInterface;html=1;verticalLabelPosition=bottom;sketch=0;flipV=0;flipH=1;" parent="1" vertex="1">
          <mxGeometry x="1030" y="1010" width="40" height="40" as="geometry" />
        </mxCell>
        <mxCell id="apOxuv2w6RahuDsQ91DI-35" style="rounded=0;orthogonalLoop=1;jettySize=auto;html=1;endArrow=none;endFill=0;edgeStyle=elbowEdgeStyle;" parent="1" source="apOxuv2w6RahuDsQ91DI-43" target="758whW3wnUASTh_ceuO4-5" edge="1">
          <mxGeometry relative="1" as="geometry">
            <Array as="points" />
          </mxGeometry>
        </mxCell>
        <mxCell id="XylG27JU7PK3eP8t6BsH-5" value="Battles action&lt;br&gt;interface" style="shape=providedRequiredInterface;html=1;verticalLabelPosition=bottom;sketch=0;flipV=0;flipH=1;" parent="1" vertex="1">
          <mxGeometry x="1030" y="910" width="40" height="40" as="geometry" />
        </mxCell>
        <mxCell id="apOxuv2w6RahuDsQ91DI-36" style="rounded=0;orthogonalLoop=1;jettySize=auto;html=1;endArrow=none;endFill=0;edgeStyle=elbowEdgeStyle;" parent="1" source="apOxuv2w6RahuDsQ91DI-46" target="758whW3wnUASTh_ceuO4-7" edge="1">
          <mxGeometry relative="1" as="geometry">
            <Array as="points" />
          </mxGeometry>
        </mxCell>
        <mxCell id="XylG27JU7PK3eP8t6BsH-7" value="Profile inspector&lt;br&gt;interface" style="shape=providedRequiredInterface;html=1;verticalLabelPosition=bottom;sketch=0;flipV=0;flipH=1;" parent="1" vertex="1">
          <mxGeometry x="1030" y="810" width="40" height="40" as="geometry" />
        </mxCell>
        <mxCell id="758whW3wnUASTh_ceuO4-30" style="edgeStyle=elbowEdgeStyle;rounded=0;orthogonalLoop=1;jettySize=auto;html=1;endArrow=none;endFill=0;fillColor=#e1d5e7;strokeColor=#9673a6;" parent="1" source="758whW3wnUASTh_ceuO4-1" target="758whW3wnUASTh_ceuO4-26" edge="1">
          <mxGeometry relative="1" as="geometry" />
        </mxCell>
        <mxCell id="758whW3wnUASTh_ceuO4-44" style="edgeStyle=elbowEdgeStyle;rounded=0;orthogonalLoop=1;jettySize=auto;html=1;endArrow=none;endFill=0;fillColor=#d5e8d4;strokeColor=#82b366;exitX=1;exitY=0.25;exitDx=0;exitDy=0;" parent="1" source="758whW3wnUASTh_ceuO4-1" target="758whW3wnUASTh_ceuO4-39" edge="1">
          <mxGeometry relative="1" as="geometry" />
        </mxCell>
        <mxCell id="758whW3wnUASTh_ceuO4-1" value="&lt;b&gt;Badges&lt;br&gt;manager&lt;br&gt;&lt;/b&gt;" style="html=1;dropTarget=0;whiteSpace=wrap;fillColor=#dae8fc;strokeColor=#6c8ebf;" parent="1" vertex="1">
          <mxGeometry x="1480" y="600" width="160" height="80" as="geometry" />
        </mxCell>
        <mxCell id="758whW3wnUASTh_ceuO4-2" value="" style="shape=module;jettyWidth=8;jettyHeight=4;fillColor=#dae8fc;strokeColor=#6c8ebf;" parent="758whW3wnUASTh_ceuO4-1" vertex="1">
          <mxGeometry x="1" width="20" height="20" relative="1" as="geometry">
            <mxPoint x="-27" y="7" as="offset" />
          </mxGeometry>
        </mxCell>
        <mxCell id="758whW3wnUASTh_ceuO4-13" style="edgeStyle=orthogonalEdgeStyle;rounded=0;orthogonalLoop=1;jettySize=auto;html=1;endArrow=none;endFill=0;" parent="1" source="758whW3wnUASTh_ceuO4-3" target="758whW3wnUASTh_ceuO4-12" edge="1">
          <mxGeometry relative="1" as="geometry" />
        </mxCell>
        <mxCell id="758whW3wnUASTh_ceuO4-29" style="rounded=0;orthogonalLoop=1;jettySize=auto;html=1;endArrow=none;endFill=0;exitX=1;exitY=0.5;exitDx=0;exitDy=0;edgeStyle=elbowEdgeStyle;fillColor=#e1d5e7;strokeColor=#9673a6;" parent="1" source="758whW3wnUASTh_ceuO4-3" target="758whW3wnUASTh_ceuO4-26" edge="1">
          <mxGeometry relative="1" as="geometry" />
        </mxCell>
        <mxCell id="758whW3wnUASTh_ceuO4-46" style="edgeStyle=elbowEdgeStyle;rounded=0;orthogonalLoop=1;jettySize=auto;html=1;endArrow=none;endFill=0;fillColor=#d5e8d4;strokeColor=#82b366;exitX=1;exitY=0.25;exitDx=0;exitDy=0;" parent="1" source="758whW3wnUASTh_ceuO4-3" target="758whW3wnUASTh_ceuO4-39" edge="1">
          <mxGeometry relative="1" as="geometry" />
        </mxCell>
        <mxCell id="apOxuv2w6RahuDsQ91DI-9" style="edgeStyle=elbowEdgeStyle;rounded=0;orthogonalLoop=1;jettySize=auto;html=1;fillColor=#fad7ac;strokeColor=#b46504;endArrow=none;endFill=0;exitX=1;exitY=0.75;exitDx=0;exitDy=0;" parent="1" source="758whW3wnUASTh_ceuO4-3" target="apOxuv2w6RahuDsQ91DI-6" edge="1">
          <mxGeometry relative="1" as="geometry" />
        </mxCell>
        <mxCell id="758whW3wnUASTh_ceuO4-3" value="&lt;b&gt;Tournaments&lt;br&gt;manager&lt;br&gt;&lt;/b&gt;" style="html=1;dropTarget=0;whiteSpace=wrap;fillColor=#dae8fc;strokeColor=#6c8ebf;" parent="1" vertex="1">
          <mxGeometry x="1480" y="920" width="160" height="80" as="geometry" />
        </mxCell>
        <mxCell id="758whW3wnUASTh_ceuO4-4" value="" style="shape=module;jettyWidth=8;jettyHeight=4;fillColor=#dae8fc;strokeColor=#6c8ebf;" parent="758whW3wnUASTh_ceuO4-3" vertex="1">
          <mxGeometry x="1" width="20" height="20" relative="1" as="geometry">
            <mxPoint x="-27" y="7" as="offset" />
          </mxGeometry>
        </mxCell>
        <mxCell id="758whW3wnUASTh_ceuO4-28" style="rounded=0;orthogonalLoop=1;jettySize=auto;html=1;endArrow=none;endFill=0;exitDx=0;exitDy=0;edgeStyle=elbowEdgeStyle;fillColor=#e1d5e7;strokeColor=#9673a6;" parent="1" source="C0yePoJCWu_Ar_9S11x2-4" target="758whW3wnUASTh_ceuO4-26" edge="1">
          <mxGeometry relative="1" as="geometry" />
        </mxCell>
        <mxCell id="758whW3wnUASTh_ceuO4-45" style="edgeStyle=elbowEdgeStyle;rounded=0;orthogonalLoop=1;jettySize=auto;html=1;endArrow=none;endFill=0;fillColor=#d5e8d4;strokeColor=#82b366;exitX=1;exitY=0.25;exitDx=0;exitDy=0;" parent="1" source="758whW3wnUASTh_ceuO4-5" target="758whW3wnUASTh_ceuO4-39" edge="1">
          <mxGeometry relative="1" as="geometry" />
        </mxCell>
        <mxCell id="apOxuv2w6RahuDsQ91DI-10" style="edgeStyle=elbowEdgeStyle;rounded=0;orthogonalLoop=1;jettySize=auto;html=1;fillColor=#fad7ac;strokeColor=#b46504;endArrow=none;endFill=0;exitX=1;exitY=0.75;exitDx=0;exitDy=0;" parent="1" source="758whW3wnUASTh_ceuO4-5" target="apOxuv2w6RahuDsQ91DI-6" edge="1">
          <mxGeometry relative="1" as="geometry" />
        </mxCell>
        <mxCell id="dd3WBzlH9bCQJZS-CcU6-2" style="edgeStyle=orthogonalEdgeStyle;rounded=0;orthogonalLoop=1;jettySize=auto;html=1;exitX=0;exitY=0.75;exitDx=0;exitDy=0;endArrow=none;endFill=0;dashed=1;" edge="1" parent="1" source="758whW3wnUASTh_ceuO4-5" target="dd3WBzlH9bCQJZS-CcU6-3">
          <mxGeometry relative="1" as="geometry">
            <mxPoint x="1425.000690798563" y="1270" as="targetPoint" />
          </mxGeometry>
        </mxCell>
        <mxCell id="758whW3wnUASTh_ceuO4-5" value="&lt;b&gt;Battles&lt;br&gt;manager&lt;br&gt;&lt;/b&gt;" style="html=1;dropTarget=0;whiteSpace=wrap;fillColor=#dae8fc;strokeColor=#6c8ebf;" parent="1" vertex="1">
          <mxGeometry x="1480" y="720" width="160" height="80" as="geometry" />
        </mxCell>
        <mxCell id="758whW3wnUASTh_ceuO4-6" value="" style="shape=module;jettyWidth=8;jettyHeight=4;fillColor=#dae8fc;strokeColor=#6c8ebf;" parent="758whW3wnUASTh_ceuO4-5" vertex="1">
          <mxGeometry x="1" width="20" height="20" relative="1" as="geometry">
            <mxPoint x="-27" y="7" as="offset" />
          </mxGeometry>
        </mxCell>
        <mxCell id="758whW3wnUASTh_ceuO4-47" style="edgeStyle=elbowEdgeStyle;rounded=0;orthogonalLoop=1;jettySize=auto;html=1;endArrow=none;endFill=0;fillColor=#d5e8d4;strokeColor=#82b366;exitX=1;exitY=0.25;exitDx=0;exitDy=0;" parent="1" source="758whW3wnUASTh_ceuO4-7" target="758whW3wnUASTh_ceuO4-39" edge="1">
          <mxGeometry relative="1" as="geometry" />
        </mxCell>
        <mxCell id="758whW3wnUASTh_ceuO4-7" value="&lt;b&gt;Profile&lt;br&gt;Inspector&lt;br&gt;&lt;/b&gt;" style="html=1;dropTarget=0;whiteSpace=wrap;fillColor=#dae8fc;strokeColor=#6c8ebf;" parent="1" vertex="1">
          <mxGeometry x="1480" y="480" width="160" height="80" as="geometry" />
        </mxCell>
        <mxCell id="758whW3wnUASTh_ceuO4-8" value="" style="shape=module;jettyWidth=8;jettyHeight=4;fillColor=#dae8fc;strokeColor=#6c8ebf;" parent="758whW3wnUASTh_ceuO4-7" vertex="1">
          <mxGeometry x="1" width="20" height="20" relative="1" as="geometry">
            <mxPoint x="-27" y="7" as="offset" />
          </mxGeometry>
        </mxCell>
        <mxCell id="758whW3wnUASTh_ceuO4-14" style="edgeStyle=orthogonalEdgeStyle;rounded=0;orthogonalLoop=1;jettySize=auto;html=1;endArrow=none;endFill=0;" parent="1" source="758whW3wnUASTh_ceuO4-12" target="758whW3wnUASTh_ceuO4-5" edge="1">
          <mxGeometry relative="1" as="geometry" />
        </mxCell>
        <mxCell id="758whW3wnUASTh_ceuO4-12" value="TournamentInt" style="shape=providedRequiredInterface;html=1;verticalLabelPosition=bottom;sketch=0;rotation=90;" parent="1" vertex="1">
          <mxGeometry x="1545" y="843.5" width="30" height="30" as="geometry" />
        </mxCell>
        <mxCell id="758whW3wnUASTh_ceuO4-31" value="" style="group" parent="1" vertex="1" connectable="0">
          <mxGeometry x="1801" y="720" width="280" height="80" as="geometry" />
        </mxCell>
        <mxCell id="758whW3wnUASTh_ceuO4-10" value="&lt;b&gt;Auth&lt;br&gt;manager&lt;br&gt;&lt;/b&gt;" style="html=1;dropTarget=0;whiteSpace=wrap;fillColor=#dae8fc;strokeColor=#6c8ebf;" parent="758whW3wnUASTh_ceuO4-31" vertex="1">
          <mxGeometry x="229" width="160" height="80" as="geometry" />
        </mxCell>
        <mxCell id="758whW3wnUASTh_ceuO4-11" value="" style="shape=module;jettyWidth=8;jettyHeight=4;fillColor=#e1d5e7;strokeColor=#9673a6;" parent="758whW3wnUASTh_ceuO4-10" vertex="1">
          <mxGeometry x="1" width="20" height="20" relative="1" as="geometry">
            <mxPoint x="-27" y="7" as="offset" />
          </mxGeometry>
        </mxCell>
        <mxCell id="758whW3wnUASTh_ceuO4-26" value="AuthInt" style="shape=providedRequiredInterface;html=1;verticalLabelPosition=bottom;sketch=0;fillColor=#e1d5e7;strokeColor=#9673a6;" parent="758whW3wnUASTh_ceuO4-31" vertex="1">
          <mxGeometry y="25" width="30" height="30" as="geometry" />
        </mxCell>
        <mxCell id="758whW3wnUASTh_ceuO4-27" style="edgeStyle=orthogonalEdgeStyle;rounded=0;orthogonalLoop=1;jettySize=auto;html=1;endArrow=none;endFill=0;fillColor=#e1d5e7;strokeColor=#9673a6;" parent="758whW3wnUASTh_ceuO4-31" source="758whW3wnUASTh_ceuO4-10" target="758whW3wnUASTh_ceuO4-26" edge="1">
          <mxGeometry relative="1" as="geometry" />
        </mxCell>
        <mxCell id="758whW3wnUASTh_ceuO4-36" value="" style="group" parent="1" vertex="1" connectable="0">
          <mxGeometry x="1740" y="500" width="280" height="80" as="geometry" />
        </mxCell>
        <mxCell id="758whW3wnUASTh_ceuO4-37" value="&lt;b&gt;Query&lt;br&gt;manager&lt;br&gt;&lt;/b&gt;" style="html=1;dropTarget=0;whiteSpace=wrap;fillColor=#dae8fc;strokeColor=#6c8ebf;" parent="758whW3wnUASTh_ceuO4-36" vertex="1">
          <mxGeometry x="120" width="160" height="80" as="geometry" />
        </mxCell>
        <mxCell id="758whW3wnUASTh_ceuO4-38" value="" style="shape=module;jettyWidth=8;jettyHeight=4;fillColor=#d5e8d4;strokeColor=#82b366;" parent="758whW3wnUASTh_ceuO4-37" vertex="1">
          <mxGeometry x="1" width="20" height="20" relative="1" as="geometry">
            <mxPoint x="-27" y="7" as="offset" />
          </mxGeometry>
        </mxCell>
        <mxCell id="758whW3wnUASTh_ceuO4-39" value="QueryInt" style="shape=providedRequiredInterface;html=1;verticalLabelPosition=bottom;sketch=0;fillColor=#d5e8d4;strokeColor=#82b366;" parent="758whW3wnUASTh_ceuO4-36" vertex="1">
          <mxGeometry y="25" width="30" height="30" as="geometry" />
        </mxCell>
        <mxCell id="758whW3wnUASTh_ceuO4-40" style="edgeStyle=orthogonalEdgeStyle;rounded=0;orthogonalLoop=1;jettySize=auto;html=1;endArrow=none;endFill=0;fillColor=#d5e8d4;strokeColor=#82b366;" parent="758whW3wnUASTh_ceuO4-36" source="758whW3wnUASTh_ceuO4-37" target="758whW3wnUASTh_ceuO4-39" edge="1">
          <mxGeometry relative="1" as="geometry" />
        </mxCell>
        <mxCell id="apOxuv2w6RahuDsQ91DI-3" value="" style="group" parent="1" vertex="1" connectable="0">
          <mxGeometry x="1770" y="940" width="280" height="80" as="geometry" />
        </mxCell>
        <mxCell id="apOxuv2w6RahuDsQ91DI-4" value="&lt;b&gt;Notification&lt;br&gt;manager&lt;br&gt;&lt;/b&gt;" style="html=1;dropTarget=0;whiteSpace=wrap;fillColor=#dae8fc;strokeColor=#6c8ebf;" parent="apOxuv2w6RahuDsQ91DI-3" vertex="1">
          <mxGeometry x="120" width="160" height="80" as="geometry" />
        </mxCell>
        <mxCell id="apOxuv2w6RahuDsQ91DI-5" value="" style="shape=module;jettyWidth=8;jettyHeight=4;fillColor=#fad7ac;strokeColor=#b46504;" parent="apOxuv2w6RahuDsQ91DI-4" vertex="1">
          <mxGeometry x="1" width="20" height="20" relative="1" as="geometry">
            <mxPoint x="-27" y="7" as="offset" />
          </mxGeometry>
        </mxCell>
        <mxCell id="apOxuv2w6RahuDsQ91DI-6" value="NotificationInt" style="shape=providedRequiredInterface;html=1;verticalLabelPosition=bottom;sketch=0;fillColor=#fad7ac;strokeColor=#b46504;" parent="apOxuv2w6RahuDsQ91DI-3" vertex="1">
          <mxGeometry y="25" width="30" height="30" as="geometry" />
        </mxCell>
        <mxCell id="apOxuv2w6RahuDsQ91DI-7" style="edgeStyle=orthogonalEdgeStyle;rounded=0;orthogonalLoop=1;jettySize=auto;html=1;endArrow=none;endFill=0;fillColor=#fad7ac;strokeColor=#b46504;" parent="apOxuv2w6RahuDsQ91DI-3" source="apOxuv2w6RahuDsQ91DI-4" target="apOxuv2w6RahuDsQ91DI-6" edge="1">
          <mxGeometry relative="1" as="geometry" />
        </mxCell>
        <mxCell id="apOxuv2w6RahuDsQ91DI-44" value="" style="rounded=0;orthogonalLoop=1;jettySize=auto;html=1;endArrow=none;endFill=0;edgeStyle=elbowEdgeStyle;" parent="1" source="XylG27JU7PK3eP8t6BsH-5" target="apOxuv2w6RahuDsQ91DI-43" edge="1">
          <mxGeometry relative="1" as="geometry">
            <mxPoint x="1070" y="930" as="sourcePoint" />
            <mxPoint x="1480" y="760" as="targetPoint" />
            <Array as="points">
              <mxPoint x="1160" y="830" />
            </Array>
          </mxGeometry>
        </mxCell>
        <mxCell id="apOxuv2w6RahuDsQ91DI-43" value="" style="shape=waypoint;sketch=0;size=6;pointerEvents=1;points=[];fillColor=none;resizable=0;rotatable=0;perimeter=centerPerimeter;snapToPoint=1;" parent="1" vertex="1">
          <mxGeometry x="1150" y="750" width="20" height="20" as="geometry" />
        </mxCell>
        <mxCell id="apOxuv2w6RahuDsQ91DI-45" value="" style="shape=waypoint;sketch=0;size=6;pointerEvents=1;points=[];fillColor=none;resizable=0;rotatable=0;perimeter=centerPerimeter;snapToPoint=1;" parent="1" vertex="1">
          <mxGeometry x="1190" y="950" width="20" height="20" as="geometry" />
        </mxCell>
        <mxCell id="apOxuv2w6RahuDsQ91DI-47" value="" style="rounded=0;orthogonalLoop=1;jettySize=auto;html=1;endArrow=none;endFill=0;edgeStyle=elbowEdgeStyle;" parent="1" source="XylG27JU7PK3eP8t6BsH-7" target="apOxuv2w6RahuDsQ91DI-46" edge="1">
          <mxGeometry relative="1" as="geometry">
            <mxPoint x="1070" y="830" as="sourcePoint" />
            <mxPoint x="1480" y="520" as="targetPoint" />
            <Array as="points">
              <mxPoint x="1120" y="650" />
            </Array>
          </mxGeometry>
        </mxCell>
        <mxCell id="apOxuv2w6RahuDsQ91DI-46" value="" style="shape=waypoint;sketch=0;size=6;pointerEvents=1;points=[];fillColor=none;resizable=0;rotatable=0;perimeter=centerPerimeter;snapToPoint=1;" parent="1" vertex="1">
          <mxGeometry x="1110" y="510" width="20" height="20" as="geometry" />
        </mxCell>
        <mxCell id="apOxuv2w6RahuDsQ91DI-49" value="" style="group" parent="1" vertex="1" connectable="0">
          <mxGeometry x="2060" y="70" width="280" height="80" as="geometry" />
        </mxCell>
        <mxCell id="apOxuv2w6RahuDsQ91DI-50" value="&lt;b&gt;DBMS&lt;br&gt;&lt;/b&gt;" style="html=1;dropTarget=0;whiteSpace=wrap;fillColor=#d5e8d4;strokeColor=#82b366;" parent="apOxuv2w6RahuDsQ91DI-49" vertex="1">
          <mxGeometry x="230" width="160" height="80" as="geometry" />
        </mxCell>
        <mxCell id="apOxuv2w6RahuDsQ91DI-51" value="" style="shape=module;jettyWidth=8;jettyHeight=4;fillColor=#d5e8d4;strokeColor=#82b366;" parent="apOxuv2w6RahuDsQ91DI-50" vertex="1">
          <mxGeometry x="1" width="20" height="20" relative="1" as="geometry">
            <mxPoint x="-27" y="7" as="offset" />
          </mxGeometry>
        </mxCell>
        <mxCell id="apOxuv2w6RahuDsQ91DI-52" value="DBMS&lt;br&gt;interface" style="shape=providedRequiredInterface;html=1;verticalLabelPosition=bottom;sketch=0;" parent="apOxuv2w6RahuDsQ91DI-49" vertex="1">
          <mxGeometry y="25" width="30" height="30" as="geometry" />
        </mxCell>
        <mxCell id="apOxuv2w6RahuDsQ91DI-53" style="edgeStyle=orthogonalEdgeStyle;rounded=0;orthogonalLoop=1;jettySize=auto;html=1;endArrow=none;endFill=0;" parent="apOxuv2w6RahuDsQ91DI-49" source="apOxuv2w6RahuDsQ91DI-50" target="apOxuv2w6RahuDsQ91DI-52" edge="1">
          <mxGeometry relative="1" as="geometry" />
        </mxCell>
        <mxCell id="apOxuv2w6RahuDsQ91DI-55" style="edgeStyle=orthogonalEdgeStyle;rounded=0;orthogonalLoop=1;jettySize=auto;html=1;endArrow=none;endFill=0;" parent="1" source="758whW3wnUASTh_ceuO4-37" target="apOxuv2w6RahuDsQ91DI-52" edge="1">
          <mxGeometry relative="1" as="geometry">
            <Array as="points">
              <mxPoint x="1940" y="110" />
            </Array>
          </mxGeometry>
        </mxCell>
        <mxCell id="99z6p9EfWcxoERIi5Lqi-1" value="&lt;b&gt;CKB platform&lt;/b&gt;" style="shape=umlFrame;whiteSpace=wrap;html=1;pointerEvents=0;width=260;height=60;strokeWidth=2;fillColor=#dae8fc;strokeColor=#6c8ebf;" parent="1" vertex="1">
          <mxGeometry x="1340" y="250" width="940" height="950" as="geometry" />
        </mxCell>
        <mxCell id="99z6p9EfWcxoERIi5Lqi-2" value="&lt;b&gt;DBMS&lt;/b&gt;" style="shape=umlFrame;whiteSpace=wrap;html=1;pointerEvents=0;width=140;height=40;strokeWidth=2;fillColor=#d5e8d4;strokeColor=#82b366;" parent="1" vertex="1">
          <mxGeometry x="2150" y="20" width="360" height="170" as="geometry" />
        </mxCell>
        <mxCell id="99z6p9EfWcxoERIi5Lqi-5" value="" style="rounded=0;whiteSpace=wrap;html=1;fillColor=#dae8fc;strokeColor=#6c8ebf;" parent="1" vertex="1">
          <mxGeometry x="1330" y="320" width="20" height="20" as="geometry" />
        </mxCell>
        <mxCell id="99z6p9EfWcxoERIi5Lqi-6" value="" style="rounded=0;whiteSpace=wrap;html=1;fillColor=#dae8fc;strokeColor=#6c8ebf;" parent="1" vertex="1">
          <mxGeometry x="1330" y="510" width="20" height="20" as="geometry" />
        </mxCell>
        <mxCell id="99z6p9EfWcxoERIi5Lqi-7" value="" style="rounded=0;whiteSpace=wrap;html=1;fillColor=#dae8fc;strokeColor=#6c8ebf;" parent="1" vertex="1">
          <mxGeometry x="1330" y="630" width="20" height="20" as="geometry" />
        </mxCell>
        <mxCell id="99z6p9EfWcxoERIi5Lqi-9" value="" style="rounded=0;whiteSpace=wrap;html=1;fillColor=#dae8fc;strokeColor=#6c8ebf;" parent="1" vertex="1">
          <mxGeometry x="1330" y="750" width="20" height="20" as="geometry" />
        </mxCell>
        <mxCell id="99z6p9EfWcxoERIi5Lqi-10" value="" style="rounded=0;whiteSpace=wrap;html=1;fillColor=#dae8fc;strokeColor=#6c8ebf;" parent="1" vertex="1">
          <mxGeometry x="1330" y="950" width="20" height="20" as="geometry" />
        </mxCell>
        <mxCell id="99z6p9EfWcxoERIi5Lqi-11" value="" style="rounded=0;whiteSpace=wrap;html=1;fillColor=#dae8fc;strokeColor=#6c8ebf;" parent="1" vertex="1">
          <mxGeometry x="1330" y="1110" width="20" height="20" as="geometry" />
        </mxCell>
        <mxCell id="99z6p9EfWcxoERIi5Lqi-13" value="" style="rounded=0;whiteSpace=wrap;html=1;fillColor=#dae8fc;strokeColor=#6c8ebf;" parent="1" vertex="1">
          <mxGeometry x="1931" y="240" width="20" height="20" as="geometry" />
        </mxCell>
        <mxCell id="dd3WBzlH9bCQJZS-CcU6-3" value="" style="shape=requiredInterface;html=1;verticalLabelPosition=bottom;sketch=0;rotation=-90;" vertex="1" parent="1">
          <mxGeometry x="1420" y="1270" width="20" height="30" as="geometry" />
        </mxCell>
        <mxCell id="dd3WBzlH9bCQJZS-CcU6-4" value="GitHub API" style="text;html=1;align=center;verticalAlign=middle;resizable=0;points=[];autosize=1;strokeColor=none;fillColor=none;" vertex="1" parent="1">
          <mxGeometry x="1390" y="1295" width="80" height="30" as="geometry" />
        </mxCell>
        <mxCell id="0fTbBttJm2J-pMs6CKnE-1" value="" style="shape=requiredInterface;html=1;verticalLabelPosition=bottom;sketch=0;rotation=-90;" vertex="1" parent="1">
          <mxGeometry x="1960" y="1270" width="20" height="30" as="geometry" />
        </mxCell>
        <mxCell id="0fTbBttJm2J-pMs6CKnE-2" value="Email API" style="text;html=1;align=center;verticalAlign=middle;resizable=0;points=[];autosize=1;strokeColor=none;fillColor=none;" vertex="1" parent="1">
          <mxGeometry x="1930" y="1295" width="80" height="30" as="geometry" />
        </mxCell>
        <mxCell id="0fTbBttJm2J-pMs6CKnE-3" style="edgeStyle=orthogonalEdgeStyle;rounded=0;orthogonalLoop=1;jettySize=auto;html=1;dashed=1;endArrow=none;endFill=0;" edge="1" parent="1" source="apOxuv2w6RahuDsQ91DI-4" target="0fTbBttJm2J-pMs6CKnE-1">
          <mxGeometry relative="1" as="geometry" />
        </mxCell>
        <mxCell id="0fTbBttJm2J-pMs6CKnE-4" value="" style="rounded=0;whiteSpace=wrap;html=1;fillColor=#dae8fc;strokeColor=#6c8ebf;" vertex="1" parent="1">
          <mxGeometry x="1420" y="1190" width="20" height="20" as="geometry" />
        </mxCell>
        <mxCell id="0fTbBttJm2J-pMs6CKnE-5" value="" style="rounded=0;whiteSpace=wrap;html=1;fillColor=#dae8fc;strokeColor=#6c8ebf;" vertex="1" parent="1">
          <mxGeometry x="1960" y="1190" width="20" height="20" as="geometry" />
        </mxCell>
        <mxCell id="C0yePoJCWu_Ar_9S11x2-1" value="" style="shape=waypoint;sketch=0;size=6;pointerEvents=1;points=[];fillColor=#d5e8d4;resizable=0;rotatable=0;perimeter=centerPerimeter;snapToPoint=1;strokeColor=#82b366;" vertex="1" parent="1">
          <mxGeometry x="1680" y="530" width="20" height="20" as="geometry" />
        </mxCell>
        <mxCell id="C0yePoJCWu_Ar_9S11x2-2" style="edgeStyle=orthogonalEdgeStyle;rounded=0;orthogonalLoop=1;jettySize=auto;html=1;exitX=0;exitY=0.25;exitDx=0;exitDy=0;fillColor=#d5e8d4;strokeColor=#82b366;endArrow=none;endFill=0;" edge="1" parent="1" source="758whW3wnUASTh_ceuO4-10">
          <mxGeometry relative="1" as="geometry">
            <mxPoint x="1690" y="740" as="targetPoint" />
          </mxGeometry>
        </mxCell>
        <mxCell id="C0yePoJCWu_Ar_9S11x2-3" value="" style="shape=waypoint;sketch=0;size=6;pointerEvents=1;points=[];fillColor=none;resizable=0;rotatable=0;perimeter=centerPerimeter;snapToPoint=1;" vertex="1" parent="1">
          <mxGeometry x="1130" y="530" width="20" height="20" as="geometry" />
        </mxCell>
        <mxCell id="C0yePoJCWu_Ar_9S11x2-5" value="" style="rounded=0;orthogonalLoop=1;jettySize=auto;html=1;endArrow=none;endFill=0;exitX=1;exitY=0.5;exitDx=0;exitDy=0;edgeStyle=elbowEdgeStyle;fillColor=#e1d5e7;strokeColor=#9673a6;" edge="1" parent="1" source="758whW3wnUASTh_ceuO4-5" target="C0yePoJCWu_Ar_9S11x2-4">
          <mxGeometry relative="1" as="geometry">
            <mxPoint x="1640" y="760" as="sourcePoint" />
            <mxPoint x="1801" y="760" as="targetPoint" />
          </mxGeometry>
        </mxCell>
        <mxCell id="C0yePoJCWu_Ar_9S11x2-4" value="" style="shape=waypoint;sketch=0;size=6;pointerEvents=1;points=[];fillColor=#e1d5e7;resizable=0;rotatable=0;perimeter=centerPerimeter;snapToPoint=1;strokeColor=#9673a6;" vertex="1" parent="1">
          <mxGeometry x="1710" y="750" width="20" height="20" as="geometry" />
        </mxCell>
      </root>
    </mxGraphModel>
  </diagram>
</mxfile>
